<svg xmlns="http://www.w3.org/2000/svg" viewBox="0 0 64 64">
  <defs>
    <linearGradient id="g" x1="0%" y1="0%" x2="100%" y2="100%">
      <stop offset="0%" stop-color="#818cf8"/>
      <stop offset="100%" stop-color="#6366f1"/>
    </linearGradient>
  </defs>
  <rect width="64" height="64" rx="14" fill="url(#g)"/>
  <path d="M20 16h16a2 2 0 0 1 2 2v4l6 6v18a2 2 0 0 1-2 2H20a2 2 0 0 1-2-2V18a2 2 0 0 1 2-2z" fill="none" stroke="#fff" stroke-width="2.5" stroke-linejoin="round"/>
  <path d="M36 16v8a2 2 0 0 0 2 2h6" fill="none" stroke="#fff" stroke-width="2.5" stroke-linecap="round" stroke-linejoin="round"/>
  <line x1="24" y1="32" x2="38" y2="32" stroke="#fff" stroke-width="2" stroke-linecap="round" opacity=".9"/>
  <line x1="24" y1="37" x2="35" y2="37" stroke="#fff" stroke-width="2" stroke-linecap="round" opacity=".7"/>
  <line x1="24" y1="42" x2="32" y2="42" stroke="#fff" stroke-width="2" stroke-linecap="round" opacity=".5"/>
</svg>
